<svg xmlns="http://www.w3.org/2000/svg" xmlns:oryx="http://oryx-editor.org" id="_2263F135-08DA-444D-982B-66E1782AAF63" width="953" height="339" xmlns:xlink="http://www.w3.org/1999/xlink" xmlns:svg="http://www.w3.org/2000/svg"><defs><marker id="_2E4C7792-9ECE-4DEB-B8FF-78298906D10Astart" refX="1" refY="5" markerUnits="userSpaceOnUse" markerWidth="17" markerHeight="11" orient="auto" fill="#000000" stroke="#000000"> 	  		<path id="_2E4C7792-9ECE-4DEB-B8FF-78298906D10Aconditional" d="M 0 5 L 8 0 L 16 5 L 8 10 L 0 5" fill="white" stroke="#000000" stroke-width="1" display="none"/> 			<path id="_2E4C7792-9ECE-4DEB-B8FF-78298906D10Adefault" d="M 5 0 L 11 10" fill="white" stroke="#000000" stroke-width="1" display="none"/> 	  	</marker><marker id="_2E4C7792-9ECE-4DEB-B8FF-78298906D10Aend" refX="15" refY="6" markerUnits="userSpaceOnUse" markerWidth="15" markerHeight="12" orient="auto" fill="#000000" stroke="#000000"> 	  		<path id="_2E4C7792-9ECE-4DEB-B8FF-78298906D10Aframe2" d="M 0 1 L 15 6 L 0 11z" fill="#000000" stroke="#000000" stroke-linejoin="round" stroke-width="2"/> 	  	</marker><marker id="_E2CAF49F-1133-495E-A3F5-5234E2A0120Dstart" refX="1" refY="5" markerUnits="userSpaceOnUse" markerWidth="17" markerHeight="11" orient="auto" fill="#000000" stroke="#000000"> 	  		<path id="_E2CAF49F-1133-495E-A3F5-5234E2A0120Dconditional" d="M 0 5 L 8 0 L 16 5 L 8 10 L 0 5" fill="white" stroke="#000000" stroke-width="1" display="none"/> 			<path id="_E2CAF49F-1133-495E-A3F5-5234E2A0120Ddefault" d="M 5 0 L 11 10" fill="white" stroke="#000000" stroke-width="1" display="none"/> 	  	</marker><marker id="_E2CAF49F-1133-495E-A3F5-5234E2A0120Dend" refX="15" refY="6" markerUnits="userSpaceOnUse" markerWidth="15" markerHeight="12" orient="auto" fill="#000000" stroke="#000000"> 	  		<path id="_E2CAF49F-1133-495E-A3F5-5234E2A0120Dframe2" d="M 0 1 L 15 6 L 0 11z" fill="#000000" stroke="#000000" stroke-linejoin="round" stroke-width="2"/> 	  	</marker><marker id="_B18A72A4-35F5-41CF-A4C1-D9A9D9B24169start" refX="1" refY="5" markerUnits="userSpaceOnUse" markerWidth="17" markerHeight="11" orient="auto" fill="#000000" stroke="#000000"> 	  		<path id="_B18A72A4-35F5-41CF-A4C1-D9A9D9B24169conditional" d="M 0 5 L 8 0 L 16 5 L 8 10 L 0 5" fill="white" stroke="#000000" stroke-width="1" display="none"/> 			<path id="_B18A72A4-35F5-41CF-A4C1-D9A9D9B24169default" d="M 5 0 L 11 10" fill="white" stroke="#000000" stroke-width="1" display="none"/> 	  	</marker><marker id="_B18A72A4-35F5-41CF-A4C1-D9A9D9B24169end" refX="15" refY="6" markerUnits="userSpaceOnUse" markerWidth="15" markerHeight="12" orient="auto" fill="#000000" stroke="#000000"> 	  		<path id="_B18A72A4-35F5-41CF-A4C1-D9A9D9B24169frame2" d="M 0 1 L 15 6 L 0 11z" fill="#000000" stroke="#000000" stroke-linejoin="round" stroke-width="2"/> 	  	</marker><marker id="_6FBFC046-C75C-45E4-B912-F9C51E324948start" refX="1" refY="5" markerUnits="userSpaceOnUse" markerWidth="17" markerHeight="11" orient="auto" fill="#000000" stroke="#000000"> 	  		<path id="_6FBFC046-C75C-45E4-B912-F9C51E324948conditional" d="M 0 5 L 8 0 L 16 5 L 8 10 L 0 5" fill="white" stroke="#000000" stroke-width="1" display="none"/> 			<path id="_6FBFC046-C75C-45E4-B912-F9C51E324948default" d="M 5 0 L 11 10" fill="white" stroke="#000000" stroke-width="1" display="none"/> 	  	</marker><marker id="_6FBFC046-C75C-45E4-B912-F9C51E324948end" refX="15" refY="6" markerUnits="userSpaceOnUse" markerWidth="15" markerHeight="12" orient="auto" fill="#000000" stroke="#000000"> 	  		<path id="_6FBFC046-C75C-45E4-B912-F9C51E324948frame2" d="M 0 1 L 15 6 L 0 11z" fill="#000000" stroke="#000000" stroke-linejoin="round" stroke-width="2"/> 	  	</marker><marker id="_FE9676C3-C408-42FE-A525-BA1E98AC2711start" refX="1" refY="5" markerUnits="userSpaceOnUse" markerWidth="17" markerHeight="11" orient="auto" fill="#000000" stroke="#000000"> 	  		<path id="_FE9676C3-C408-42FE-A525-BA1E98AC2711conditional" d="M 0 5 L 8 0 L 16 5 L 8 10 L 0 5" fill="white" stroke="#000000" stroke-width="1" display="none"/> 			<path id="_FE9676C3-C408-42FE-A525-BA1E98AC2711default" d="M 5 0 L 11 10" fill="white" stroke="#000000" stroke-width="1" display="none"/> 	  	</marker><marker id="_FE9676C3-C408-42FE-A525-BA1E98AC2711end" refX="15" refY="6" markerUnits="userSpaceOnUse" markerWidth="15" markerHeight="12" orient="auto" fill="#000000" stroke="#000000"> 	  		<path id="_FE9676C3-C408-42FE-A525-BA1E98AC2711frame2" d="M 0 1 L 15 6 L 0 11z" fill="#000000" stroke="#000000" stroke-linejoin="round" stroke-width="2"/> 	  	</marker><marker id="_B2AE4D2E-A563-492F-BC23-E48225FB1CF2start" refX="1" refY="5" markerUnits="userSpaceOnUse" markerWidth="17" markerHeight="11" orient="auto" fill="#000000" stroke="#000000"> 	  		<path id="_B2AE4D2E-A563-492F-BC23-E48225FB1CF2conditional" d="M 0 5 L 8 0 L 16 5 L 8 10 L 0 5" fill="white" stroke="#000000" stroke-width="1" display="none"/> 			<path id="_B2AE4D2E-A563-492F-BC23-E48225FB1CF2default" d="M 5 0 L 11 10" fill="white" stroke="#000000" stroke-width="1" display="none"/> 	  	</marker><marker id="_B2AE4D2E-A563-492F-BC23-E48225FB1CF2end" refX="15" refY="6" markerUnits="userSpaceOnUse" markerWidth="15" markerHeight="12" orient="auto" fill="#000000" stroke="#000000"> 	  		<path id="_B2AE4D2E-A563-492F-BC23-E48225FB1CF2frame2" d="M 0 1 L 15 6 L 0 11z" fill="#000000" stroke="#000000" stroke-linejoin="round" stroke-width="2"/> 	  	</marker><marker id="_20E3DE9B-FCC1-4D8E-BE77-7B81CC86DB6Astart" refX="1" refY="5" markerUnits="userSpaceOnUse" markerWidth="17" markerHeight="11" orient="auto" fill="#000000" stroke="#000000"> 	  		<path id="_20E3DE9B-FCC1-4D8E-BE77-7B81CC86DB6Aconditional" d="M 0 5 L 8 0 L 16 5 L 8 10 L 0 5" fill="white" stroke="#000000" stroke-width="1" display="none"/> 			<path id="_20E3DE9B-FCC1-4D8E-BE77-7B81CC86DB6Adefault" d="M 5 0 L 11 10" fill="white" stroke="#000000" stroke-width="1" display="none"/> 	  	</marker><marker id="_20E3DE9B-FCC1-4D8E-BE77-7B81CC86DB6Aend" refX="15" refY="6" markerUnits="userSpaceOnUse" markerWidth="15" markerHeight="12" orient="auto" fill="#000000" stroke="#000000"> 	  		<path id="_20E3DE9B-FCC1-4D8E-BE77-7B81CC86DB6Aframe2" d="M 0 1 L 15 6 L 0 11z" fill="#000000" stroke="#000000" stroke-linejoin="round" stroke-width="2"/> 	  	</marker></defs><g stroke="none" font-family="Verdana, sans-serif" font-size-adjust="none" font-style="normal" font-variant="normal" font-weight="normal" line-heigth="normal" font-size="12"><g class="stencils" transform="translate(15, 16)"><g class="me"/><g class="children"><g id="_788FE401-9566-4FDB-A2F0-C6E325010E00" bpmn2nodeid="processStartEvent"><g class="stencils" transform="translate(120, 160)"><g class="me"><g pointer-events="fill" id="_788FE401-9566-4FDB-A2F0-C6E325010E00">        <defs id="_788FE401-9566-4FDB-A2F0-C6E325010E00__788FE401-9566-4FDB-A2F0-C6E325010E00_5"> 		<radialGradient id="_788FE401-9566-4FDB-A2F0-C6E325010E00background" cx="10%" cy="10%" r="100%" fx="10%" fy="10%"> 			<stop offset="0%" stop-color="#ffffff" stop-opacity="1" id="_788FE401-9566-4FDB-A2F0-C6E325010E00__788FE401-9566-4FDB-A2F0-C6E325010E00_6"/> 			<stop id="_788FE401-9566-4FDB-A2F0-C6E325010E00fill_el" offset="100%" stop-color="#9acd32" stop-opacity="1"/> 		</radialGradient> 	</defs> 	     <circle id="_788FE401-9566-4FDB-A2F0-C6E325010E00bg_frame" cx="15" cy="15" r="15" stroke="#000000" fill="url(#_788FE401-9566-4FDB-A2F0-C6E325010E00background) white" stroke-width="1" style="stroke-dasharray: 5.5, 3"/>      <circle id="_788FE401-9566-4FDB-A2F0-C6E325010E00frame" cx="15" cy="15" r="15" stroke="#000000" fill="none" stroke-width="1" display="inherit"/>  	<text font-size="11" id="_788FE401-9566-4FDB-A2F0-C6E325010E00text_name" x="15" y="32" oryx:align="top center" stroke="black" stroke-width="0pt" letter-spacing="-0.01px" fill="#000000" text-anchor="middle" transform="rotate(0 15 32)" visibility="inherit" oryx:fontSize="11"/>   </g></g><g class="children" style="overflow:hidden"/><g class="edge"/></g><g class="controls"><g class="dockers"/><g class="magnets" transform="translate(120, 160)"><g pointer-events="all" display="none" transform="translate(7, 7)"><circle cx="8" cy="8" r="4" stroke="none" fill="red" fill-opacity="0.3"/></g></g></g></g><g id="_F7E85DDD-E398-4B39-B67E-211214438677" bpmn2nodeid="_B410954E-7972-4A4A-A978-8C7769402DC7"><g class="stencils" transform="translate(195, 135)"><g class="me"><g pointer-events="fill" oryx:minimumSize="50 40" id="_F7E85DDD-E398-4B39-B67E-211214438677">   	<defs id="_F7E85DDD-E398-4B39-B67E-211214438677__F7E85DDD-E398-4B39-B67E-211214438677_17"> 		<radialGradient id="_F7E85DDD-E398-4B39-B67E-211214438677background" cx="10%" cy="10%" r="100%" fx="10%" fy="10%"> 			<stop offset="0%" stop-color="#ffffff" stop-opacity="1" id="_F7E85DDD-E398-4B39-B67E-211214438677__F7E85DDD-E398-4B39-B67E-211214438677_18"/> 			<stop id="_F7E85DDD-E398-4B39-B67E-211214438677fill_el" offset="100%" stop-color="#fafad2" stop-opacity="1"/> 		</radialGradient> 		<radialGradient id="_F7E85DDD-E398-4B39-B67E-211214438677borderbackground" cx="10%" cy="10%" r="100%" fx="10%" fy="10%"> 			<stop offset="0%" stop-color="#ffffff" stop-opacity="1" id="_F7E85DDD-E398-4B39-B67E-211214438677__F7E85DDD-E398-4B39-B67E-211214438677_19"/> 			<stop id="_F7E85DDD-E398-4B39-B67E-211214438677fill_border" offset="100%" stop-color="#000000" stop-opacity="1" stroke="#000000"/> 		</radialGradient> 	</defs> 	 	<rect id="_F7E85DDD-E398-4B39-B67E-211214438677text_frame" oryx:anchors="bottom top right left" x="1" y="1" width="94" height="79" rx="10" ry="10" stroke="none" stroke-width="0" fill="none"/> 	<rect id="_F7E85DDD-E398-4B39-B67E-211214438677bg_frame" oryx:resize="vertical horizontal" x="0" y="0" width="100" height="80" rx="10" ry="10" stroke="#000000" stroke-width="1" fill="url(#_F7E85DDD-E398-4B39-B67E-211214438677background) #ffffcc"/> 		<text font-size="12" id="_F7E85DDD-E398-4B39-B67E-211214438677text_name" x="50" y="40" oryx:align="middle center" oryx:fittoelem="text_frame" stroke="black" text-anchor="middle" stroke-width="0pt" letter-spacing="-0.01px" fill="#000000" transform="rotate(0 50 40)" visibility="inherit" oryx:fontSize="12"><tspan x="50" y="40" dy="5" id="ext-gen1017">Valida Entrada</tspan></text>     <g id="_F7E85DDD-E398-4B39-B67E-211214438677manualTask" transform="scale(0.7,0.7) translate(8,8)" display="none">     	<path oryx:anchors="top left" id="_F7E85DDD-E398-4B39-B67E-211214438677frame" style="opacity:1;fill:none;fill-opacity:1;stroke-width:1" d="M0.5,3.751l4.083-3.25c0,0,11.166,0.083,12.083,0.083s-2.417,2.917-1.5,2.917     s11.667,0,12.584,0c1.166,1.708-0.168,3.167-0.834,3.667s0.875,1.917-1,4.417c-0.75,0.25,0.75,1.875-1.333,3.333     c-1.167,0.583,0.583,1.542-1.25,2.833c-1.167,0-20.833,0.083-20.833,0.083l-2-1.333V3.751z" stroke="#000000"/> 		<path id="_F7E85DDD-E398-4B39-B67E-211214438677frame2" oryx:anchors="top left" style="opacity:1;fill:none;stroke-width:2" d="M 13.5 7 L 27 7" stroke="#000000"/> 		<path id="_F7E85DDD-E398-4B39-B67E-211214438677frame3" oryx:anchors="top left" style="opacity:1;fill:none;stroke-width:2" d="M 13.5 11 L 26 11" stroke="#000000"/> 		<path id="_F7E85DDD-E398-4B39-B67E-211214438677frame4" oryx:anchors="top left" style="opacity:1;fill:none;stroke-width:1.5" d="M 14 14.5 L 25 14.5" stroke="#000000"/> 		<path id="_F7E85DDD-E398-4B39-B67E-211214438677frame5" oryx:anchors="top left" style="opacity:1;fill:none;stroke-width:1.5" d="M 8.2 3.1 L 15 3.1" stroke="#000000"/> 	</g> 	 	<g id="_F7E85DDD-E398-4B39-B67E-211214438677businessRuleTask" transform="scale(0.7,0.7) translate(8,8)" display="none"> 		<rect id="_F7E85DDD-E398-4B39-B67E-211214438677frame6" oryx:anchors="top left" x="0" y="0" width="22" height="4" style="opacity:1;fill:#B3B1B3;fill-opacity:1;" stroke="#000000"/> 		<rect id="_F7E85DDD-E398-4B39-B67E-211214438677frame7" oryx:anchors="top left" x="0" y="4" style="opacity:1;fill:none;" width="22" height="12" stroke="#000000"/> 		<path id="_F7E85DDD-E398-4B39-B67E-211214438677frame8" oryx:anchors="top left" style="opacity:1;fill:none;" d="M 0 10 L 22 10" stroke="#000000"/> 		<path id="_F7E85DDD-E398-4B39-B67E-211214438677frame9" oryx:anchors="top left" style="opacity:1; fill:none;" d="M 7 4 L 7 16" stroke="#000000"/> 	</g> 	 	<g id="_F7E85DDD-E398-4B39-B67E-211214438677scriptTask" transform="scale(0.7,0.7) translate(8,8)" display="inherit"> 		<path oryx:anchors="top left" id="_F7E85DDD-E398-4B39-B67E-211214438677frame10" style="opacity:1;fill:none;" stroke="#000000" d="M6.402,0.5h14.5c0,0-5.833,2.833-5.833,5.583s4.417,6,4.417,9.167    s-4.167,5.083-4.167,5.083H0.235c0,0,5-2.667,5-5s-4.583-6.75-4.583-9.25S6.402,0.5,6.402,0.5z"/> 		<path oryx:anchors="top left" id="_F7E85DDD-E398-4B39-B67E-211214438677frame11" style="opacity:1;fill:none;stroke-width:1.5" d="M 3.5 4.5 L 13.5 4.5" stroke="#000000"/> 		<path oryx:anchors="top left" id="_F7E85DDD-E398-4B39-B67E-211214438677frame12" style="opacity:1;fill:none;stroke-width:1.5" d="M 3.8 8.5 L 13.8 8.5" stroke="#000000"/> 		<path oryx:anchors="top left" id="_F7E85DDD-E398-4B39-B67E-211214438677frame13" style="opacity:1;fill:none;stroke-width:1.5" d="M 6.3 12.5 L 16.3 12.5" stroke="#000000"/> 		<path oryx:anchors="top left" id="_F7E85DDD-E398-4B39-B67E-211214438677frame14" style="opacity:1;fill:none;stroke-width:1.5" d="M 6.5 16.5 L 16.5 16.5" stroke="#000000"/> 	</g> 	 	<g id="_F7E85DDD-E398-4B39-B67E-211214438677userTask" transform="scale(0.7,0.7) translate(8,8)" display="none"> 		<path id="_F7E85DDD-E398-4B39-B67E-211214438677frame15" oryx:anchors="top left" style="opacity:1;fill:#F4F6F7" stroke="#000000" d="M0.585,24.167h24.083v-7.833c0,0-2.333-3.917-7.083-5.167h-9.25    c-4.417,1.333-7.833,5.75-7.833,5.75L0.585,24.167z"/> 		<path id="_F7E85DDD-E398-4B39-B67E-211214438677frame16" oryx:anchors="top left" style="opacity:1;fill:none" d="M 6 20 L 6 24" stroke="#000000"/> 		<path id="_F7E85DDD-E398-4B39-B67E-211214438677frame17" oryx:anchors="top left" style="opacity:1;fill:none" d="M 20 20 L 20 24" stroke="#000000"/> 		<circle id="_F7E85DDD-E398-4B39-B67E-211214438677frame18" oryx:anchors="top left" fill="black" cx="13.002" cy="5.916" r="5.417" stroke="#000000"/> 		<path id="_F7E85DDD-E398-4B39-B67E-211214438677frame19" oryx:anchors="top left" style="opacity:1;fill:#F0EFF0;" stroke="#000000" d="M8.043,7.083c0,0,2.814-2.426,5.376-1.807s4.624-0.693,4.624-0.693    c0.25,1.688,0.042,3.75-1.458,5.584c0,0,1.083,0.75,1.083,1.5s0.125,1.875-1,3s-5.5,1.25-6.75,0S8.668,12.834,8.668,12    s0.583-1.25,1.25-1.917C8.835,9.5,7.419,7.708,8.043,7.083z"/> 	</g> 	 	<g id="_F7E85DDD-E398-4B39-B67E-211214438677serviceTask" transform="scale(0.7,0.7) translate(8,8)" display="none"> 		<polygon oryx:anchors="top left" id="_F7E85DDD-E398-4B39-B67E-211214438677frame20" style="opacity:1;fill:#ffffff" stroke="#000000" points="15.392,5.064 17.954,2.502 20.347,4.895 17.786,7.455     18.729,9.732 22.353,9.732 22.353,13.115 18.731,13.115 17.788,15.392 20.351,17.955 17.958,20.347 15.397,17.786 13.12,18.729     13.12,22.353 9.737,22.353 9.737,18.731 7.46,17.788 4.897,20.35 2.506,17.958 5.066,15.397 4.124,13.12 0.5,13.12 0.5,9.737     4.121,9.737 5.065,7.461 2.503,4.898 4.895,2.506 7.455,5.066 9.732,4.125 9.732,0.5 13.116,0.5 13.116,4.121 "/> 		<circle oryx:anchors="top left" id="_F7E85DDD-E398-4B39-B67E-211214438677frame21" style="opacity:1;fill:none" stroke="#000000" cx="11.427" cy="11.426" r="3.714"/> 		<polygon oryx:anchors="top left" id="_F7E85DDD-E398-4B39-B67E-211214438677frame22" style="opacity:1;fill:#ffffff" stroke="#000000" points="21.392,11.064 23.954,8.502 26.347,10.895 23.786,13.455     24.729,15.732 28.353,15.732 28.353,19.115 24.731,19.115 23.788,21.392 26.351,23.955 23.958,26.347 21.397,23.786 19.12,24.729     19.12,28.353 15.737,28.353 15.737,24.731 13.46,23.788 10.897,26.35 8.506,23.958 11.066,21.397 10.124,19.12 6.5,19.12     6.5,15.737 10.121,15.737 11.065,13.461 8.503,10.898 10.895,8.506 13.455,11.066 15.732,10.125 15.732,6.5 19.116,6.5     19.116,10.121 "/> 		<circle oryx:anchors="top left" id="_F7E85DDD-E398-4B39-B67E-211214438677frame23" style="opacity:1;fill:none;" stroke="#000000" cx="17.427" cy="17.426" r="3.714"/> 	</g> 	 	<g id="_F7E85DDD-E398-4B39-B67E-211214438677sendTask" display="none"> 		<path id="_F7E85DDD-E398-4B39-B67E-211214438677stframe24" oryx:anchors="left top" stroke="#FFFFFF" fill="black" stroke-width="1" d="M8,11 L8,21 L24,21 L24,11 L16,17z"/> 		<path id="_F7E85DDD-E398-4B39-B67E-211214438677stframe25" oryx:anchors="left top" stroke="#FFFFFF" fill="black" stroke-width="1" d="M7,10 L16,17 L25 10z"/> 	</g> 	 	<g id="_F7E85DDD-E398-4B39-B67E-211214438677receiveTask" display="none"> 		<path id="_F7E85DDD-E398-4B39-B67E-211214438677frame26" oryx:anchors="left top" stroke="#000000" fill="none" stroke-width="1" d="M8,11 L8,21 L24,21 L24,11z M8,11 L16,17 L24,11"/> 	</g> 	 	<g id="_F7E85DDD-E398-4B39-B67E-211214438677none" display="inherit"/>  	<g id="_F7E85DDD-E398-4B39-B67E-211214438677sequential" display="none">         <path oryx:anchors="bottom" fill="none" stroke="#000000" stroke-width="2" d="M46,76h10M46,72h10 M46,68h10" id="_F7E85DDD-E398-4B39-B67E-211214438677__F7E85DDD-E398-4B39-B67E-211214438677_20"/>     </g>   </g></g><g class="children" style="overflow:hidden"/><g class="edge"/></g><g class="controls"><g class="dockers"/><g class="magnets" transform="translate(195, 135)"><g pointer-events="all" display="none" transform="translate(-7, 12)"><circle cx="8" cy="8" r="4" stroke="none" fill="red" fill-opacity="0.3"/></g><g pointer-events="all" display="none" transform="translate(-7, 32)"><circle cx="8" cy="8" r="4" stroke="none" fill="red" fill-opacity="0.3"/></g><g pointer-events="all" display="none" transform="translate(-7, 52)"><circle cx="8" cy="8" r="4" stroke="none" fill="red" fill-opacity="0.3"/></g><g pointer-events="all" display="none" transform="translate(17, 71)"><circle cx="8" cy="8" r="4" stroke="none" fill="red" fill-opacity="0.3"/></g><g pointer-events="all" display="none" transform="translate(42, 71)"><circle cx="8" cy="8" r="4" stroke="none" fill="red" fill-opacity="0.3"/></g><g pointer-events="all" display="none" transform="translate(67, 71)"><circle cx="8" cy="8" r="4" stroke="none" fill="red" fill-opacity="0.3"/></g><g pointer-events="all" display="none" transform="translate(91, 12)"><circle cx="8" cy="8" r="4" stroke="none" fill="red" fill-opacity="0.3"/></g><g pointer-events="all" display="none" transform="translate(91, 32)"><circle cx="8" cy="8" r="4" stroke="none" fill="red" fill-opacity="0.3"/></g><g pointer-events="all" display="none" transform="translate(91, 52)"><circle cx="8" cy="8" r="4" stroke="none" fill="red" fill-opacity="0.3"/></g><g pointer-events="all" display="none" transform="translate(17, -7)"><circle cx="8" cy="8" r="4" stroke="none" fill="red" fill-opacity="0.3"/></g><g pointer-events="all" display="none" transform="translate(42, -7)"><circle cx="8" cy="8" r="4" stroke="none" fill="red" fill-opacity="0.3"/></g><g pointer-events="all" display="none" transform="translate(67, -7)"><circle cx="8" cy="8" r="4" stroke="none" fill="red" fill-opacity="0.3"/></g><g pointer-events="all" display="none" transform="translate(42, 32)"><circle cx="8" cy="8" r="4" stroke="none" fill="red" fill-opacity="0.3"/></g></g></g></g><g id="_3D1B7425-EBBF-426F-9BEF-779D1AF43E75" bpmn2nodeid="_CED0CCC8-868E-4DC3-879E-8C01F1EBFB2B"><g class="stencils" transform="translate(340, 155)"><g class="me"><g id="_3D1B7425-EBBF-426F-9BEF-779D1AF43E75">        <defs id="_3D1B7425-EBBF-426F-9BEF-779D1AF43E75__3D1B7425-EBBF-426F-9BEF-779D1AF43E75_4"> 		<radialGradient id="_3D1B7425-EBBF-426F-9BEF-779D1AF43E75background" cx="10%" cy="10%" r="100%" fx="10%" fy="10%"> 			<stop offset="0%" stop-color="#ffffff" stop-opacity="1" id="_3D1B7425-EBBF-426F-9BEF-779D1AF43E75__3D1B7425-EBBF-426F-9BEF-779D1AF43E75_5"/> 			<stop id="_3D1B7425-EBBF-426F-9BEF-779D1AF43E75fill_el" offset="100%" stop-color="#f0e68c" stop-opacity="1"/> 		</radialGradient> 		<radialGradient id="_3D1B7425-EBBF-426F-9BEF-779D1AF43E75borderbackground" cx="10%" cy="10%" r="100%" fx="10%" fy="10%"> 			<stop offset="0%" stop-color="#ffffff" stop-opacity="1" id="_3D1B7425-EBBF-426F-9BEF-779D1AF43E75__3D1B7425-EBBF-426F-9BEF-779D1AF43E75_6"/> 			<stop id="_3D1B7425-EBBF-426F-9BEF-779D1AF43E75fill_border" offset="100%" stop-color="#a67f00" stop-opacity="1" stroke="#a67f00"/> 		</radialGradient> 	</defs> 	     <path d=" M0 20.5  L20.5 0  L40 20.5  L20.5 40  z" id="_3D1B7425-EBBF-426F-9BEF-779D1AF43E75bg_frame" fill="url(#_3D1B7425-EBBF-426F-9BEF-779D1AF43E75background) white" style="stroke-width:1" stroke="#a67f00"/>     <g id="_3D1B7425-EBBF-426F-9BEF-779D1AF43E75frame" stroke="#a67f00">       <path id="_3D1B7425-EBBF-426F-9BEF-779D1AF43E75frame2" d=" M13.25 12.05  L17.25 12.05  L27.65 28.95  L23.75 28.95  z" style="stroke-width:1" stroke="#a67f00" fill="url(#_3D1B7425-EBBF-426F-9BEF-779D1AF43E75borderbackground)"/>       <path id="_3D1B7425-EBBF-426F-9BEF-779D1AF43E75frame3" d=" M13.25 28.95  L23.75 12.05  L27.65 12.05  L17.25 28.95  z" style="stroke-width:1" stroke="#a67f00" fill="url(#_3D1B7425-EBBF-426F-9BEF-779D1AF43E75borderbackground)"/>     </g> 	 	<text id="_3D1B7425-EBBF-426F-9BEF-779D1AF43E75text_name" x="30.5" y="30.5" oryx:align="left top" stroke-width="0pt" letter-spacing="-0.01px" fill="#000000" text-anchor="start" transform="rotate(0 30.5 30.5)" visibility="inherit" oryx:fontSize="12"/> 	   </g></g><g class="children" style="overflow:hidden"/><g class="edge"/></g><g class="controls"><g class="dockers"/><g class="magnets" transform="translate(340, 155)"><g pointer-events="all" display="none" transform="translate(12.5, 12.5)"><circle cx="8" cy="8" r="4" stroke="none" fill="red" fill-opacity="0.3"/></g></g></g></g><g id="_82FAD5C2-B121-412C-9F15-F4EBC551D27F" bpmn2nodeid="_1F15A50F-28AA-44A2-81A3-CB2A35B1CE4E"><g class="stencils" transform="translate(347, 255)"><g class="me"><g pointer-events="fill" id="_82FAD5C2-B121-412C-9F15-F4EBC551D27F">        <defs id="_82FAD5C2-B121-412C-9F15-F4EBC551D27F__82FAD5C2-B121-412C-9F15-F4EBC551D27F_6"> 		<radialGradient id="_82FAD5C2-B121-412C-9F15-F4EBC551D27Fbackground" cx="10%" cy="10%" r="100%" fx="10%" fy="10%"> 			<stop offset="0%" stop-color="#ffffff" stop-opacity="1" id="_82FAD5C2-B121-412C-9F15-F4EBC551D27F__82FAD5C2-B121-412C-9F15-F4EBC551D27F_7"/> 			<stop id="_82FAD5C2-B121-412C-9F15-F4EBC551D27Ffill_el" offset="100%" stop-color="#ff6347" stop-opacity="1"/> 		</radialGradient> 		<radialGradient id="_82FAD5C2-B121-412C-9F15-F4EBC551D27Fborderbackground" cx="10%" cy="10%" r="100%" fx="10%" fy="10%"> 			<stop offset="0%" stop-color="#ffffff" stop-opacity="1" id="_82FAD5C2-B121-412C-9F15-F4EBC551D27F__82FAD5C2-B121-412C-9F15-F4EBC551D27F_8"/> 			<stop id="_82FAD5C2-B121-412C-9F15-F4EBC551D27Ffill_border" offset="100%" stop-color="#000000" stop-opacity="1" stroke="#000000"/> 		</radialGradient> 	</defs> 	     <circle id="_82FAD5C2-B121-412C-9F15-F4EBC551D27Fbg_frame" cx="14" cy="14" r="14" stroke="#000000" fill="url(#_82FAD5C2-B121-412C-9F15-F4EBC551D27Fbackground) white" stroke-width="3"/>          <path id="_82FAD5C2-B121-412C-9F15-F4EBC551D27Fframe" style="stroke-width:1.5;stroke-linecap:butt;stroke-linejoin:miter;stroke-miterlimit:10" stroke="#000000" fill="url(#_82FAD5C2-B121-412C-9F15-F4EBC551D27Fborderbackground)" d=" M20.820839 9.171502  L17.36734 22.58992  L11.54138 12.281818999999999  L7.3386512 18.071607  L11.048949 4.832305699999999  L16.996148 14.132659  L20.820839 9.171502  z"/> 	<text font-size="11" id="_82FAD5C2-B121-412C-9F15-F4EBC551D27Ftext_name" x="14" y="30" oryx:align="top center" stroke="black" stroke-width="0pt" letter-spacing="-0.01px" fill="#000000" text-anchor="middle" transform="rotate(0 14 30)" visibility="inherit" oryx:fontSize="11"><tspan x="14" y="30" dy="11" id="ext-gen840">ErroValidacaoEntrada</tspan></text>   </g></g><g class="children" style="overflow:hidden"/><g class="edge"/></g><g class="controls"><g class="dockers"/><g class="magnets" transform="translate(347, 255)"><g pointer-events="all" display="none" transform="translate(6, 6)"><circle cx="8" cy="8" r="4" stroke="none" fill="red" fill-opacity="0.3"/></g></g></g></g><g id="_43E47B34-5316-4028-9230-D99E990A5695" bpmn2nodeid="_AC59792C-0078-4767-A8A7-D1E8796F387C"><g class="stencils" transform="translate(885, 161)"><g class="me"><g pointer-events="fill" id="_43E47B34-5316-4028-9230-D99E990A5695">      <defs id="_43E47B34-5316-4028-9230-D99E990A5695__43E47B34-5316-4028-9230-D99E990A5695_5"> 		<radialGradient id="_43E47B34-5316-4028-9230-D99E990A5695background" cx="10%" cy="10%" r="100%" fx="10%" fy="10%"> 			<stop offset="0%" stop-color="#ffffff" stop-opacity="1" id="_43E47B34-5316-4028-9230-D99E990A5695__43E47B34-5316-4028-9230-D99E990A5695_6"/> 			<stop id="_43E47B34-5316-4028-9230-D99E990A5695fill_el" offset="100%" stop-color="#ff6347" stop-opacity="1"/> 		</radialGradient> 	</defs> 	     <circle id="_43E47B34-5316-4028-9230-D99E990A5695bg_frame" cx="14" cy="14" r="14" stroke="#000000" fill="url(#_43E47B34-5316-4028-9230-D99E990A5695background) white" stroke-width="3"/> 	<text font-size="11" id="_43E47B34-5316-4028-9230-D99E990A5695text_name" x="14" y="30" oryx:align="top center" stroke="black" stroke-width="0pt" letter-spacing="-0.01px" fill="#000000" text-anchor="middle" transform="rotate(0 14 30)" visibility="inherit" oryx:fontSize="11"/>   </g></g><g class="children" style="overflow:hidden"/><g class="edge"/></g><g class="controls"><g class="dockers"/><g class="magnets" transform="translate(885, 161)"><g pointer-events="all" display="none" transform="translate(6, 6)"><circle cx="8" cy="8" r="4" stroke="none" fill="red" fill-opacity="0.3"/></g></g></g></g><g id="_8BB8805B-3278-4FE5-BBC0-2C64EE4CEAAC" bpmn2nodeid="_BA4C91BB-7ADF-41F5-8A0E-752AE47A3257"><g class="stencils" transform="translate(540, 135)"><g class="me"><g pointer-events="fill" oryx:minimumSize="50 40" id="_8BB8805B-3278-4FE5-BBC0-2C64EE4CEAAC">   	<defs id="_8BB8805B-3278-4FE5-BBC0-2C64EE4CEAAC__8BB8805B-3278-4FE5-BBC0-2C64EE4CEAAC_17"> 		<radialGradient id="_8BB8805B-3278-4FE5-BBC0-2C64EE4CEAACbackground" cx="10%" cy="10%" r="100%" fx="10%" fy="10%"> 			<stop offset="0%" stop-color="#ffffff" stop-opacity="1" id="_8BB8805B-3278-4FE5-BBC0-2C64EE4CEAAC__8BB8805B-3278-4FE5-BBC0-2C64EE4CEAAC_18"/> 			<stop id="_8BB8805B-3278-4FE5-BBC0-2C64EE4CEAACfill_el" offset="100%" stop-color="#fafad2" stop-opacity="1"/> 		</radialGradient> 		<radialGradient id="_8BB8805B-3278-4FE5-BBC0-2C64EE4CEAACborderbackground" cx="10%" cy="10%" r="100%" fx="10%" fy="10%"> 			<stop offset="0%" stop-color="#ffffff" stop-opacity="1" id="_8BB8805B-3278-4FE5-BBC0-2C64EE4CEAAC__8BB8805B-3278-4FE5-BBC0-2C64EE4CEAAC_19"/> 			<stop id="_8BB8805B-3278-4FE5-BBC0-2C64EE4CEAACfill_border" offset="100%" stop-color="#000000" stop-opacity="1" stroke="#000000"/> 		</radialGradient> 	</defs> 	 	<rect id="_8BB8805B-3278-4FE5-BBC0-2C64EE4CEAACtext_frame" oryx:anchors="bottom top right left" x="1" y="1" width="94" height="79" rx="10" ry="10" stroke="none" stroke-width="0" fill="none"/> 	<rect id="_8BB8805B-3278-4FE5-BBC0-2C64EE4CEAACbg_frame" oryx:resize="vertical horizontal" x="0" y="0" width="100" height="80" rx="10" ry="10" stroke="#000000" stroke-width="1" fill="url(#_8BB8805B-3278-4FE5-BBC0-2C64EE4CEAACbackground) #ffffcc"/> 		<text font-size="12" id="_8BB8805B-3278-4FE5-BBC0-2C64EE4CEAACtext_name" x="50" y="40" oryx:align="middle center" oryx:fittoelem="text_frame" stroke="black" text-anchor="middle" stroke-width="0pt" letter-spacing="-0.01px" fill="#000000" transform="rotate(0 50 40)" visibility="inherit" oryx:fontSize="12"><tspan x="50" y="40" dy="5" id="ext-gen607">validacao pedido</tspan></text>     <g id="_8BB8805B-3278-4FE5-BBC0-2C64EE4CEAACmanualTask" transform="scale(0.7,0.7) translate(8,8)" display="none">     	<path oryx:anchors="top left" id="_8BB8805B-3278-4FE5-BBC0-2C64EE4CEAACframe" style="opacity:1;fill:none;fill-opacity:1;stroke-width:1" d="M0.5,3.751l4.083-3.25c0,0,11.166,0.083,12.083,0.083s-2.417,2.917-1.5,2.917     s11.667,0,12.584,0c1.166,1.708-0.168,3.167-0.834,3.667s0.875,1.917-1,4.417c-0.75,0.25,0.75,1.875-1.333,3.333     c-1.167,0.583,0.583,1.542-1.25,2.833c-1.167,0-20.833,0.083-20.833,0.083l-2-1.333V3.751z" stroke="#000000"/> 		<path id="_8BB8805B-3278-4FE5-BBC0-2C64EE4CEAACframe2" oryx:anchors="top left" style="opacity:1;fill:none;stroke-width:2" d="M 13.5 7 L 27 7" stroke="#000000"/> 		<path id="_8BB8805B-3278-4FE5-BBC0-2C64EE4CEAACframe3" oryx:anchors="top left" style="opacity:1;fill:none;stroke-width:2" d="M 13.5 11 L 26 11" stroke="#000000"/> 		<path id="_8BB8805B-3278-4FE5-BBC0-2C64EE4CEAACframe4" oryx:anchors="top left" style="opacity:1;fill:none;stroke-width:1.5" d="M 14 14.5 L 25 14.5" stroke="#000000"/> 		<path id="_8BB8805B-3278-4FE5-BBC0-2C64EE4CEAACframe5" oryx:anchors="top left" style="opacity:1;fill:none;stroke-width:1.5" d="M 8.2 3.1 L 15 3.1" stroke="#000000"/> 	</g> 	 	<g id="_8BB8805B-3278-4FE5-BBC0-2C64EE4CEAACbusinessRuleTask" transform="scale(0.7,0.7) translate(8,8)" display="none"> 		<rect id="_8BB8805B-3278-4FE5-BBC0-2C64EE4CEAACframe6" oryx:anchors="top left" x="0" y="0" width="22" height="4" style="opacity:1;fill:#B3B1B3;fill-opacity:1;" stroke="#000000"/> 		<rect id="_8BB8805B-3278-4FE5-BBC0-2C64EE4CEAACframe7" oryx:anchors="top left" x="0" y="4" style="opacity:1;fill:none;" width="22" height="12" stroke="#000000"/> 		<path id="_8BB8805B-3278-4FE5-BBC0-2C64EE4CEAACframe8" oryx:anchors="top left" style="opacity:1;fill:none;" d="M 0 10 L 22 10" stroke="#000000"/> 		<path id="_8BB8805B-3278-4FE5-BBC0-2C64EE4CEAACframe9" oryx:anchors="top left" style="opacity:1; fill:none;" d="M 7 4 L 7 16" stroke="#000000"/> 	</g> 	 	<g id="_8BB8805B-3278-4FE5-BBC0-2C64EE4CEAACscriptTask" transform="scale(0.7,0.7) translate(8,8)" display="none"> 		<path oryx:anchors="top left" id="_8BB8805B-3278-4FE5-BBC0-2C64EE4CEAACframe10" style="opacity:1;fill:none;" stroke="#000000" d="M6.402,0.5h14.5c0,0-5.833,2.833-5.833,5.583s4.417,6,4.417,9.167    s-4.167,5.083-4.167,5.083H0.235c0,0,5-2.667,5-5s-4.583-6.75-4.583-9.25S6.402,0.5,6.402,0.5z"/> 		<path oryx:anchors="top left" id="_8BB8805B-3278-4FE5-BBC0-2C64EE4CEAACframe11" style="opacity:1;fill:none;stroke-width:1.5" d="M 3.5 4.5 L 13.5 4.5" stroke="#000000"/> 		<path oryx:anchors="top left" id="_8BB8805B-3278-4FE5-BBC0-2C64EE4CEAACframe12" style="opacity:1;fill:none;stroke-width:1.5" d="M 3.8 8.5 L 13.8 8.5" stroke="#000000"/> 		<path oryx:anchors="top left" id="_8BB8805B-3278-4FE5-BBC0-2C64EE4CEAACframe13" style="opacity:1;fill:none;stroke-width:1.5" d="M 6.3 12.5 L 16.3 12.5" stroke="#000000"/> 		<path oryx:anchors="top left" id="_8BB8805B-3278-4FE5-BBC0-2C64EE4CEAACframe14" style="opacity:1;fill:none;stroke-width:1.5" d="M 6.5 16.5 L 16.5 16.5" stroke="#000000"/> 	</g> 	 	<g id="_8BB8805B-3278-4FE5-BBC0-2C64EE4CEAACuserTask" transform="scale(0.7,0.7) translate(8,8)" display="inherit"> 		<path id="_8BB8805B-3278-4FE5-BBC0-2C64EE4CEAACframe15" oryx:anchors="top left" style="opacity:1;fill:#F4F6F7" stroke="#000000" d="M0.585,24.167h24.083v-7.833c0,0-2.333-3.917-7.083-5.167h-9.25    c-4.417,1.333-7.833,5.75-7.833,5.75L0.585,24.167z"/> 		<path id="_8BB8805B-3278-4FE5-BBC0-2C64EE4CEAACframe16" oryx:anchors="top left" style="opacity:1;fill:none" d="M 6 20 L 6 24" stroke="#000000"/> 		<path id="_8BB8805B-3278-4FE5-BBC0-2C64EE4CEAACframe17" oryx:anchors="top left" style="opacity:1;fill:none" d="M 20 20 L 20 24" stroke="#000000"/> 		<circle id="_8BB8805B-3278-4FE5-BBC0-2C64EE4CEAACframe18" oryx:anchors="top left" fill="black" cx="13.002" cy="5.916" r="5.417" stroke="#000000"/> 		<path id="_8BB8805B-3278-4FE5-BBC0-2C64EE4CEAACframe19" oryx:anchors="top left" style="opacity:1;fill:#F0EFF0;" stroke="#000000" d="M8.043,7.083c0,0,2.814-2.426,5.376-1.807s4.624-0.693,4.624-0.693    c0.25,1.688,0.042,3.75-1.458,5.584c0,0,1.083,0.75,1.083,1.5s0.125,1.875-1,3s-5.5,1.25-6.75,0S8.668,12.834,8.668,12    s0.583-1.25,1.25-1.917C8.835,9.5,7.419,7.708,8.043,7.083z"/> 	</g> 	 	<g id="_8BB8805B-3278-4FE5-BBC0-2C64EE4CEAACserviceTask" transform="scale(0.7,0.7) translate(8,8)" display="none"> 		<polygon oryx:anchors="top left" id="_8BB8805B-3278-4FE5-BBC0-2C64EE4CEAACframe20" style="opacity:1;fill:#ffffff" stroke="#000000" points="15.392,5.064 17.954,2.502 20.347,4.895 17.786,7.455     18.729,9.732 22.353,9.732 22.353,13.115 18.731,13.115 17.788,15.392 20.351,17.955 17.958,20.347 15.397,17.786 13.12,18.729     13.12,22.353 9.737,22.353 9.737,18.731 7.46,17.788 4.897,20.35 2.506,17.958 5.066,15.397 4.124,13.12 0.5,13.12 0.5,9.737     4.121,9.737 5.065,7.461 2.503,4.898 4.895,2.506 7.455,5.066 9.732,4.125 9.732,0.5 13.116,0.5 13.116,4.121 "/> 		<circle oryx:anchors="top left" id="_8BB8805B-3278-4FE5-BBC0-2C64EE4CEAACframe21" style="opacity:1;fill:none" stroke="#000000" cx="11.427" cy="11.426" r="3.714"/> 		<polygon oryx:anchors="top left" id="_8BB8805B-3278-4FE5-BBC0-2C64EE4CEAACframe22" style="opacity:1;fill:#ffffff" stroke="#000000" points="21.392,11.064 23.954,8.502 26.347,10.895 23.786,13.455     24.729,15.732 28.353,15.732 28.353,19.115 24.731,19.115 23.788,21.392 26.351,23.955 23.958,26.347 21.397,23.786 19.12,24.729     19.12,28.353 15.737,28.353 15.737,24.731 13.46,23.788 10.897,26.35 8.506,23.958 11.066,21.397 10.124,19.12 6.5,19.12     6.5,15.737 10.121,15.737 11.065,13.461 8.503,10.898 10.895,8.506 13.455,11.066 15.732,10.125 15.732,6.5 19.116,6.5     19.116,10.121 "/> 		<circle oryx:anchors="top left" id="_8BB8805B-3278-4FE5-BBC0-2C64EE4CEAACframe23" style="opacity:1;fill:none;" stroke="#000000" cx="17.427" cy="17.426" r="3.714"/> 	</g> 	 	<g id="_8BB8805B-3278-4FE5-BBC0-2C64EE4CEAACsendTask" display="none"> 		<path id="_8BB8805B-3278-4FE5-BBC0-2C64EE4CEAACstframe24" oryx:anchors="left top" stroke="#FFFFFF" fill="black" stroke-width="1" d="M8,11 L8,21 L24,21 L24,11 L16,17z"/> 		<path id="_8BB8805B-3278-4FE5-BBC0-2C64EE4CEAACstframe25" oryx:anchors="left top" stroke="#FFFFFF" fill="black" stroke-width="1" d="M7,10 L16,17 L25 10z"/> 	</g> 	 	<g id="_8BB8805B-3278-4FE5-BBC0-2C64EE4CEAACreceiveTask" display="none"> 		<path id="_8BB8805B-3278-4FE5-BBC0-2C64EE4CEAACframe26" oryx:anchors="left top" stroke="#000000" fill="none" stroke-width="1" d="M8,11 L8,21 L24,21 L24,11z M8,11 L16,17 L24,11"/> 	</g> 	 	<g id="_8BB8805B-3278-4FE5-BBC0-2C64EE4CEAACnone" display="inherit"/>  	<g id="_8BB8805B-3278-4FE5-BBC0-2C64EE4CEAACsequential" display="none">         <path oryx:anchors="bottom" fill="none" stroke="#000000" stroke-width="2" d="M46,76h10M46,72h10 M46,68h10" id="_8BB8805B-3278-4FE5-BBC0-2C64EE4CEAAC__8BB8805B-3278-4FE5-BBC0-2C64EE4CEAAC_20"/>     </g>   </g></g><g class="children" style="overflow:hidden"/><g class="edge"/></g><g class="controls"><g class="dockers"/><g class="magnets" transform="translate(540, 135)"><g pointer-events="all" display="none" transform="translate(-7, 12)"><circle cx="8" cy="8" r="4" stroke="none" fill="red" fill-opacity="0.3"/></g><g pointer-events="all" display="none" transform="translate(-7, 32)"><circle cx="8" cy="8" r="4" stroke="none" fill="red" fill-opacity="0.3"/></g><g pointer-events="all" display="none" transform="translate(-7, 52)"><circle cx="8" cy="8" r="4" stroke="none" fill="red" fill-opacity="0.3"/></g><g pointer-events="all" display="none" transform="translate(17, 71)"><circle cx="8" cy="8" r="4" stroke="none" fill="red" fill-opacity="0.3"/></g><g pointer-events="all" display="none" transform="translate(42, 71)"><circle cx="8" cy="8" r="4" stroke="none" fill="red" fill-opacity="0.3"/></g><g pointer-events="all" display="none" transform="translate(67, 71)"><circle cx="8" cy="8" r="4" stroke="none" fill="red" fill-opacity="0.3"/></g><g pointer-events="all" display="none" transform="translate(91, 12)"><circle cx="8" cy="8" r="4" stroke="none" fill="red" fill-opacity="0.3"/></g><g pointer-events="all" display="none" transform="translate(91, 32)"><circle cx="8" cy="8" r="4" stroke="none" fill="red" fill-opacity="0.3"/></g><g pointer-events="all" display="none" transform="translate(91, 52)"><circle cx="8" cy="8" r="4" stroke="none" fill="red" fill-opacity="0.3"/></g><g pointer-events="all" display="none" transform="translate(17, -7)"><circle cx="8" cy="8" r="4" stroke="none" fill="red" fill-opacity="0.3"/></g><g pointer-events="all" display="none" transform="translate(42, -7)"><circle cx="8" cy="8" r="4" stroke="none" fill="red" fill-opacity="0.3"/></g><g pointer-events="all" display="none" transform="translate(67, -7)"><circle cx="8" cy="8" r="4" stroke="none" fill="red" fill-opacity="0.3"/></g><g pointer-events="all" display="none" transform="translate(42, 32)"><circle cx="8" cy="8" r="4" stroke="none" fill="red" fill-opacity="0.3"/></g></g></g></g><g id="_816A25A2-CDA0-4D6F-9232-B4A97B372382" bpmn2nodeid="_164848B8-7A62-48D8-9BEA-AA6B8E35BCB1"><g class="stencils" transform="translate(720, 155)"><g class="me"><g id="_816A25A2-CDA0-4D6F-9232-B4A97B372382">        <defs id="_816A25A2-CDA0-4D6F-9232-B4A97B372382__816A25A2-CDA0-4D6F-9232-B4A97B372382_4"> 		<radialGradient id="_816A25A2-CDA0-4D6F-9232-B4A97B372382background" cx="10%" cy="10%" r="100%" fx="10%" fy="10%"> 			<stop offset="0%" stop-color="#ffffff" stop-opacity="1" id="_816A25A2-CDA0-4D6F-9232-B4A97B372382__816A25A2-CDA0-4D6F-9232-B4A97B372382_5"/> 			<stop id="_816A25A2-CDA0-4D6F-9232-B4A97B372382fill_el" offset="100%" stop-color="#f0e68c" stop-opacity="1"/> 		</radialGradient> 		<radialGradient id="_816A25A2-CDA0-4D6F-9232-B4A97B372382borderbackground" cx="10%" cy="10%" r="100%" fx="10%" fy="10%"> 			<stop offset="0%" stop-color="#ffffff" stop-opacity="1" id="_816A25A2-CDA0-4D6F-9232-B4A97B372382__816A25A2-CDA0-4D6F-9232-B4A97B372382_6"/> 			<stop id="_816A25A2-CDA0-4D6F-9232-B4A97B372382fill_border" offset="100%" stop-color="#a67f00" stop-opacity="1" stroke="#a67f00"/> 		</radialGradient> 	</defs> 	     <path d=" M0 20.5  L20.5 0  L40 20.5  L20.5 40  z" id="_816A25A2-CDA0-4D6F-9232-B4A97B372382bg_frame" fill="url(#_816A25A2-CDA0-4D6F-9232-B4A97B372382background) white" style="stroke-width:1" stroke="#a67f00"/>     <g id="_816A25A2-CDA0-4D6F-9232-B4A97B372382frame" stroke="#a67f00">       <path id="_816A25A2-CDA0-4D6F-9232-B4A97B372382frame2" d=" M13.25 12.05  L17.25 12.05  L27.65 28.95  L23.75 28.95  z" style="stroke-width:1" stroke="#a67f00" fill="url(#_816A25A2-CDA0-4D6F-9232-B4A97B372382borderbackground)"/>       <path id="_816A25A2-CDA0-4D6F-9232-B4A97B372382frame3" d=" M13.25 28.95  L23.75 12.05  L27.65 12.05  L17.25 28.95  z" style="stroke-width:1" stroke="#a67f00" fill="url(#_816A25A2-CDA0-4D6F-9232-B4A97B372382borderbackground)"/>     </g> 	 	<text id="_816A25A2-CDA0-4D6F-9232-B4A97B372382text_name" x="30.5" y="30.5" oryx:align="left top" stroke-width="0pt" letter-spacing="-0.01px" fill="#000000" text-anchor="start" transform="rotate(0 30.5 30.5)" visibility="inherit" oryx:fontSize="12"/> 	   </g></g><g class="children" style="overflow:hidden"/><g class="edge"/></g><g class="controls"><g class="dockers"/><g class="magnets" transform="translate(720, 155)"><g pointer-events="all" display="none" transform="translate(12.5, 12.5)"><circle cx="8" cy="8" r="4" stroke="none" fill="red" fill-opacity="0.3"/></g></g></g></g><g id="_0AAB1139-E598-4C33-A35D-DFC4D4D7EA8F" bpmn2nodeid="_1E7B26B2-7DF4-4DB0-882D-F58DFDDDB5DB"><g class="stencils" transform="translate(726, 255)"><g class="me"><g pointer-events="fill" id="_0AAB1139-E598-4C33-A35D-DFC4D4D7EA8F">        <defs id="_0AAB1139-E598-4C33-A35D-DFC4D4D7EA8F__0AAB1139-E598-4C33-A35D-DFC4D4D7EA8F_6"> 		<radialGradient id="_0AAB1139-E598-4C33-A35D-DFC4D4D7EA8Fbackground" cx="10%" cy="10%" r="100%" fx="10%" fy="10%"> 			<stop offset="0%" stop-color="#ffffff" stop-opacity="1" id="_0AAB1139-E598-4C33-A35D-DFC4D4D7EA8F__0AAB1139-E598-4C33-A35D-DFC4D4D7EA8F_7"/> 			<stop id="_0AAB1139-E598-4C33-A35D-DFC4D4D7EA8Ffill_el" offset="100%" stop-color="#ff6347" stop-opacity="1"/> 		</radialGradient> 		<radialGradient id="_0AAB1139-E598-4C33-A35D-DFC4D4D7EA8Fborderbackground" cx="10%" cy="10%" r="100%" fx="10%" fy="10%"> 			<stop offset="0%" stop-color="#ffffff" stop-opacity="1" id="_0AAB1139-E598-4C33-A35D-DFC4D4D7EA8F__0AAB1139-E598-4C33-A35D-DFC4D4D7EA8F_8"/> 			<stop id="_0AAB1139-E598-4C33-A35D-DFC4D4D7EA8Ffill_border" offset="100%" stop-color="#000000" stop-opacity="1" stroke="#000000"/> 		</radialGradient> 	</defs> 	     <circle id="_0AAB1139-E598-4C33-A35D-DFC4D4D7EA8Fbg_frame" cx="14" cy="14" r="14" stroke="#000000" fill="url(#_0AAB1139-E598-4C33-A35D-DFC4D4D7EA8Fbackground) white" stroke-width="3"/>          <path id="_0AAB1139-E598-4C33-A35D-DFC4D4D7EA8Fframe" style="stroke-width:1.5;stroke-linecap:butt;stroke-linejoin:miter;stroke-miterlimit:10" stroke="#000000" fill="url(#_0AAB1139-E598-4C33-A35D-DFC4D4D7EA8Fborderbackground)" d=" M20.820839 9.171502  L17.36734 22.58992  L11.54138 12.281818999999999  L7.3386512 18.071607  L11.048949 4.832305699999999  L16.996148 14.132659  L20.820839 9.171502  z"/> 	<text font-size="11" id="_0AAB1139-E598-4C33-A35D-DFC4D4D7EA8Ftext_name" x="14" y="30" oryx:align="top center" stroke="black" stroke-width="0pt" letter-spacing="-0.01px" fill="#000000" text-anchor="middle" transform="rotate(0 14 30)" visibility="inherit" oryx:fontSize="11"><tspan x="14" y="30" dy="11" id="ext-gen606">ErroValidacaoCarrinho</tspan></text>   </g></g><g class="children" style="overflow:hidden"/><g class="edge"/></g><g class="controls"><g class="dockers"/><g class="magnets" transform="translate(726, 255)"><g pointer-events="all" display="none" transform="translate(6, 6)"><circle cx="8" cy="8" r="4" stroke="none" fill="red" fill-opacity="0.3"/></g></g></g></g></g><g class="edge"><g id="_2E4C7792-9ECE-4DEB-B8FF-78298906D10A" bpmn2nodeid="_6E8BAFF2-5A3D-4F45-AC99-58ABD938014A"><g class="stencils"><g class="me"><g pointer-events="painted" bpmn2nodeid="_02FB613C-5CCD-4E58-B497-1F9B97A6EBDB"><path id="_2E4C7792-9ECE-4DEB-B8FF-78298906D10A_1" d="M150.609375 175L194.15625 175 " stroke="#000000" fill="none" stroke-width="2" stroke-linecap="round" stroke-linejoin="round" marker-start="url(#_2E4C7792-9ECE-4DEB-B8FF-78298906D10Astart)" marker-end="url(#_2E4C7792-9ECE-4DEB-B8FF-78298906D10Aend)"/></g><text id="_2E4C7792-9ECE-4DEB-B8FF-78298906D10Atext_name" font-size="12" x="164.609375" y="161" oryx:edgePosition="startTop" stroke-width="0pt" letter-spacing="-0.01px" fill="#000000" text-anchor="start" transform="rotate(360 150.609375 175)" visibility="inherit" oryx:fontSize="12"/></g><g class="children" style="overflow:hidden"/><g class="edge"/></g><g class="controls"><g class="dockers"/><g class="magnets"/></g></g><g id="_E2CAF49F-1133-495E-A3F5-5234E2A0120D" bpmn2nodeid="_4CE55F85-24DA-43A6-AE1B-7F3047ADB3B5"><g class="stencils"><g class="me"><g pointer-events="painted" bpmn2nodeid="_E63653CD-C43D-4F61-ADA7-A29A4E2187F9"><path id="_E2CAF49F-1133-495E-A3F5-5234E2A0120D_1" d="M295.4140625 175L340.1328125 175 " stroke="#000000" fill="none" stroke-width="2" stroke-linecap="round" stroke-linejoin="round" marker-start="url(#_E2CAF49F-1133-495E-A3F5-5234E2A0120Dstart)" marker-end="url(#_E2CAF49F-1133-495E-A3F5-5234E2A0120Dend)"/></g><text id="_E2CAF49F-1133-495E-A3F5-5234E2A0120Dtext_name" font-size="12" x="309.4140625" y="161" oryx:edgePosition="startTop" stroke-width="0pt" letter-spacing="-0.01px" fill="#000000" text-anchor="start" transform="rotate(360 295.4140625 175)" visibility="inherit" oryx:fontSize="12"/></g><g class="children" style="overflow:hidden"/><g class="edge"/></g><g class="controls"><g class="dockers"/><g class="magnets"/></g></g><g id="_B18A72A4-35F5-41CF-A4C1-D9A9D9B24169" bpmn2nodeid="_C84DEDC5-61DD-49AB-980F-68085BC58F57"><g class="stencils"><g class="me"><g pointer-events="painted" bpmn2nodeid="_0FDD1625-E30E-4075-B9A9-C91B489D335A"><path id="_B18A72A4-35F5-41CF-A4C1-D9A9D9B24169_1" d="M360.21376269593736 195.09369341811183L360.84873730406264 254.78130658188817 " stroke="#000000" fill="none" stroke-width="2" stroke-linecap="round" stroke-linejoin="round" marker-start="url(#_B18A72A4-35F5-41CF-A4C1-D9A9D9B24169start)" marker-end="url(#_B18A72A4-35F5-41CF-A4C1-D9A9D9B24169end)"/></g><text id="_B18A72A4-35F5-41CF-A4C1-D9A9D9B24169text_name" font-size="12" x="374.21376269593736" y="181.09369341811183" oryx:edgePosition="startTop" stroke-width="0pt" letter-spacing="-0.01px" fill="#000000" text-anchor="start" transform="rotate(89.3904934233247 360.21376269593736 195.09369341811183)" visibility="inherit" oryx:fontSize="12"/></g><g class="children" style="overflow:hidden"/><g class="edge"/></g><g class="controls"><g class="dockers"/><g class="magnets"/></g></g><g id="_6FBFC046-C75C-45E4-B912-F9C51E324948" bpmn2nodeid="_6858E0D8-3BB0-4CAE-991B-5ADD21437F6B"><g class="stencils"><g class="me"><g pointer-events="painted" bpmn2nodeid="_2DAAEF02-1DAB-4171-9E39-0BA47AF87F17"><path id="_6FBFC046-C75C-45E4-B912-F9C51E324948_1" d="M379.8671875 175L539.5859375 175 " stroke="#000000" fill="none" stroke-width="2" stroke-linecap="round" stroke-linejoin="round" marker-start="url(#_6FBFC046-C75C-45E4-B912-F9C51E324948start)" marker-end="url(#_6FBFC046-C75C-45E4-B912-F9C51E324948end)"/></g><text id="_6FBFC046-C75C-45E4-B912-F9C51E324948text_name" font-size="12" x="393.8671875" y="161" oryx:edgePosition="startTop" stroke-width="0pt" letter-spacing="-0.01px" fill="#000000" text-anchor="start" transform="rotate(360 379.8671875 175)" visibility="inherit" oryx:fontSize="12"/></g><g class="children" style="overflow:hidden"/><g class="edge"/></g><g class="controls"><g class="dockers"/><g class="magnets"/></g></g><g id="_FE9676C3-C408-42FE-A525-BA1E98AC2711" bpmn2nodeid="_EC6A7BFA-C332-438F-A417-69B1E4D942F6"><g class="stencils"><g class="me"><g pointer-events="painted" bpmn2nodeid="_DD27A0C8-1DC9-404A-AE3A-475EF9995792"><path id="_FE9676C3-C408-42FE-A525-BA1E98AC2711_1" d="M640.21875 175L720.25 175 " stroke="#000000" fill="none" stroke-width="2" stroke-linecap="round" stroke-linejoin="round" marker-start="url(#_FE9676C3-C408-42FE-A525-BA1E98AC2711start)" marker-end="url(#_FE9676C3-C408-42FE-A525-BA1E98AC2711end)"/></g><text id="_FE9676C3-C408-42FE-A525-BA1E98AC2711text_name" font-size="12" x="654.21875" y="161" oryx:edgePosition="startTop" stroke-width="0pt" letter-spacing="-0.01px" fill="#000000" text-anchor="start" transform="rotate(360 640.21875 175)" visibility="inherit" oryx:fontSize="12"/></g><g class="children" style="overflow:hidden"/><g class="edge"/></g><g class="controls"><g class="dockers"/><g class="magnets"/></g></g><g id="_B2AE4D2E-A563-492F-BC23-E48225FB1CF2" bpmn2nodeid="_67AD77C0-31C1-41A6-AE55-2B0E84E7E716"><g class="stencils"><g class="me"><g pointer-events="painted" bpmn2nodeid="_7D4A0FC4-F549-494A-8D7A-8E3DD4B619DC"><path id="_B2AE4D2E-A563-492F-BC23-E48225FB1CF2_1" d="M759.6328125 175L884.3359375 175 " stroke="#000000" fill="none" stroke-width="2" stroke-linecap="round" stroke-linejoin="round" marker-start="url(#_B2AE4D2E-A563-492F-BC23-E48225FB1CF2start)" marker-end="url(#_B2AE4D2E-A563-492F-BC23-E48225FB1CF2end)"/></g><text id="_B2AE4D2E-A563-492F-BC23-E48225FB1CF2text_name" font-size="12" x="773.6328125" y="161" oryx:edgePosition="startTop" stroke-width="0pt" letter-spacing="-0.01px" fill="#000000" text-anchor="start" transform="rotate(360 759.6328125 175)" visibility="inherit" oryx:fontSize="12"/></g><g class="children" style="overflow:hidden"/><g class="edge"/></g><g class="controls"><g class="dockers"/><g class="magnets"/></g></g><g id="_20E3DE9B-FCC1-4D8E-BE77-7B81CC86DB6A" bpmn2nodeid="_F5534F07-41B2-4C44-B3AB-5D5D2274ECCD"><g class="stencils"><g class="me"><g pointer-events="painted" bpmn2nodeid="_A2E656C4-61C1-4827-9A3D-111AE538F7F1"><path id="_20E3DE9B-FCC1-4D8E-BE77-7B81CC86DB6A_1" d="M740 195.09375L740 254.78125 " stroke="#000000" fill="none" stroke-width="2" stroke-linecap="round" stroke-linejoin="round" marker-start="url(#_20E3DE9B-FCC1-4D8E-BE77-7B81CC86DB6Astart)" marker-end="url(#_20E3DE9B-FCC1-4D8E-BE77-7B81CC86DB6Aend)"/></g><text id="_20E3DE9B-FCC1-4D8E-BE77-7B81CC86DB6Atext_name" font-size="12" x="726" y="181.09375" oryx:edgePosition="startTop" stroke-width="0pt" letter-spacing="-0.01px" fill="#000000" text-anchor="end" transform="rotate(-90 740 195.09375)" visibility="inherit" oryx:fontSize="12"/></g><g class="children" style="overflow:hidden"/><g class="edge"/></g><g class="controls"><g class="dockers"/><g class="magnets"/></g></g></g><text id="_3867C81D-1923-450C-8153-A8A91BFE1F0A" style="stroke-width:1;fill:rgb(177,194,214);font-family:arial;font-weight:bold" font-size="12" onclick="ORYX.Plugins.CanvasTitle.openTextualAnalysis()" onmouseover="ORYX.Plugins.CanvasTitle.addToolTip('_3867C81D-1923-450C-8153-A8A91BFE1F0A')" transform="translate(10, 20)">compraOnline v.1.0 (com.myspace.jbpm_bpm_loja_online.compraOnline)</text></g></g></svg>